<svg xmlns="http://www.w3.org/2000/svg" viewBox="0 0 600 400">
  <rect width="600" height="400" fill="#f8fafc" />
  <rect x="80" y="250" width="340" height="90" rx="20" fill="#e2e8f0" stroke="#1f2937" stroke-width="6" />
  <circle cx="120" cy="295" r="12" fill="#f8fafc" stroke="#1f2937" stroke-width="6" />
  <circle cx="170" cy="295" r="12" fill="#f8fafc" stroke="#1f2937" stroke-width="6" />
  <circle cx="220" cy="295" r="12" fill="#f8fafc" stroke="#1f2937" stroke-width="6" />
  <circle cx="270" cy="295" r="12" fill="#f8fafc" stroke="#1f2937" stroke-width="6" />
  <rect x="110" y="270" width="260" height="6" fill="#94a3b8" />
  <rect x="110" y="315" width="210" height="6" fill="#94a3b8" />

  <rect x="300" y="200" width="230" height="28" rx="12" fill="#fbbf24" stroke="#1f2937" stroke-width="6" />
  <rect x="300" y="200" width="50" height="28" rx="12" fill="#cbd5f5" stroke="#1f2937" stroke-width="6" />
  <polygon points="530,200 590,214 530,228" fill="#f97316" stroke="#1f2937" stroke-width="6" />

  <rect x="120" y="90" width="240" height="30" rx="12" fill="#f59e0b" stroke="#1f2937" stroke-width="6" />
  <rect x="150" y="120" width="200" height="26" rx="10" fill="#fbbf24" stroke="#1f2937" stroke-width="6" />
  <rect x="165" y="128" width="30" height="6" fill="#fde68a" />
  <rect x="215" y="128" width="30" height="6" fill="#fde68a" />
  <polygon points="360,90 490,105 360,160" fill="#e2e8f0" stroke="#1f2937" stroke-width="6" />
  <rect x="330" y="90" width="12" height="70" fill="#1f2937" />

  <circle cx="470" cy="120" r="12" fill="#1f2937" />
  <path d="M470 132 L420 240" stroke="#1f2937" stroke-width="10" />
  <path d="M470 132 L520 240" stroke="#1f2937" stroke-width="10" />
  <circle cx="430" cy="230" r="8" fill="#1f2937" />
  <circle cx="510" cy="230" r="8" fill="#1f2937" />
</svg>
