<svg xmlns="http://www.w3.org/2000/svg" viewBox="0 0 600 400">
  <rect width="600" height="400" fill="#f8fafc" />
  <rect x="70" y="170" width="140" height="170" rx="20" fill="#fde68a" stroke="#1f2937" stroke-width="6" />
  <rect x="90" y="120" width="100" height="60" rx="18" fill="#f59e0b" stroke="#1f2937" stroke-width="6" />
  <rect x="105" y="215" width="70" height="70" rx="12" fill="#fbbf24" stroke="#1f2937" stroke-width="6" />
  <rect x="115" y="230" width="50" height="8" rx="4" fill="#fde68a" />

  <rect x="230" y="150" width="150" height="190" rx="24" fill="#e2e8f0" stroke="#1f2937" stroke-width="6" />
  <rect x="255" y="120" width="100" height="40" rx="12" fill="#cbd5f5" stroke="#1f2937" stroke-width="6" />
  <rect x="265" y="230" width="80" height="10" rx="5" fill="#94a3b8" />

  <rect x="400" y="150" width="140" height="190" rx="24" fill="#fecdd3" stroke="#1f2937" stroke-width="6" />
  <rect x="425" y="120" width="90" height="40" rx="12" fill="#fb7185" stroke="#1f2937" stroke-width="6" />
  <rect x="435" y="230" width="70" height="10" rx="5" fill="#fb7185" />

  <path d="M150 350 C145 330 175 320 185 335 C195 355 170 365 170 385" stroke="#f97316" stroke-width="10" fill="none" />
  <circle cx="170" cy="385" r="10" fill="#f97316" />
</svg>
