<svg xmlns="http://www.w3.org/2000/svg" width="600" height="794" viewBox="0 0 600 794" role="img"><title>Aluminijasto ravnilo z ročajem (40 cm) — mere in različice</title><desc>Ravnilo alu, z ročajem, 40 cm: 400 × 60 × 4,4 mm</desc><rect width="100%" height="100%" fill="#f5f2ea"/><g font-family="Arial, Helvetica, sans-serif" fill="#283739"><text x="40" y="46" font-size="18" fill="#147e80" letter-spacing="2">ATEHNA  /  MERE IN RAZLIČICE</text><g font-weight="600"><text x="40" y="96" font-size="29" >Aluminijasto ravnilo z ročajem</text><text x="40" y="130" font-size="29" >(40 cm)</text></g><text x="40" y="174" font-size="22" fill="#61716f">Mere izdelka</text><g transform="translate(40 214)"><rect width="520" height="444" rx="18" fill="#faf8f3" stroke="#dedfd5" stroke-width="1"/><text x="25" y="40" font-size="20" fill="#147e80" font-weight="600">01</text><g fill="#283739" font-weight="600"><text x="70" y="40" font-size="22" >Ravnilo alu, z ročajem, 40 cm</text></g><rect x="66" y="195" width="385" height="55" rx="2" fill="#e2e5df" stroke="#71857f" stroke-width="1.4"/><path d="M66 195 v17" stroke="#607d78" stroke-width="1"/><path d="M75.625 195 v9" stroke="#607d78" stroke-width="1"/><path d="M85.25 195 v9" stroke="#607d78" stroke-width="1"/><path d="M94.875 195 v9" stroke="#607d78" stroke-width="1"/><path d="M104.5 195 v9" stroke="#607d78" stroke-width="1"/><path d="M114.125 195 v17" stroke="#607d78" stroke-width="1"/><path d="M123.75 195 v9" stroke="#607d78" stroke-width="1"/><path d="M133.375 195 v9" stroke="#607d78" stroke-width="1"/><path d="M143 195 v9" stroke="#607d78" stroke-width="1"/><path d="M152.625 195 v9" stroke="#607d78" stroke-width="1"/><path d="M162.25 195 v17" stroke="#607d78" stroke-width="1"/><path d="M171.875 195 v9" stroke="#607d78" stroke-width="1"/><path d="M181.5 195 v9" stroke="#607d78" stroke-width="1"/><path d="M191.125 195 v9" stroke="#607d78" stroke-width="1"/><path d="M200.75 195 v9" stroke="#607d78" stroke-width="1"/><path d="M210.375 195 v17" stroke="#607d78" stroke-width="1"/><path d="M220 195 v9" stroke="#607d78" stroke-width="1"/><path d="M229.625 195 v9" stroke="#607d78" stroke-width="1"/><path d="M239.25 195 v9" stroke="#607d78" stroke-width="1"/><path d="M248.875 195 v9" stroke="#607d78" stroke-width="1"/><path d="M258.5 195 v17" stroke="#607d78" stroke-width="1"/><path d="M268.125 195 v9" stroke="#607d78" stroke-width="1"/><path d="M277.75 195 v9" stroke="#607d78" stroke-width="1"/><path d="M287.375 195 v9" stroke="#607d78" stroke-width="1"/><path d="M297 195 v9" stroke="#607d78" stroke-width="1"/><path d="M306.625 195 v17" stroke="#607d78" stroke-width="1"/><path d="M316.25 195 v9" stroke="#607d78" stroke-width="1"/><path d="M325.875 195 v9" stroke="#607d78" stroke-width="1"/><path d="M335.5 195 v9" stroke="#607d78" stroke-width="1"/><path d="M345.125 195 v9" stroke="#607d78" stroke-width="1"/><path d="M354.75 195 v17" stroke="#607d78" stroke-width="1"/><path d="M364.375 195 v9" stroke="#607d78" stroke-width="1"/><path d="M374 195 v9" stroke="#607d78" stroke-width="1"/><path d="M383.625 195 v9" stroke="#607d78" stroke-width="1"/><path d="M393.25 195 v9" stroke="#607d78" stroke-width="1"/><path d="M402.875 195 v17" stroke="#607d78" stroke-width="1"/><path d="M412.5 195 v9" stroke="#607d78" stroke-width="1"/><path d="M422.125 195 v9" stroke="#607d78" stroke-width="1"/><path d="M431.75 195 v9" stroke="#607d78" stroke-width="1"/><path d="M441.375 195 v9" stroke="#607d78" stroke-width="1"/><path d="M451 195 v17" stroke="#607d78" stroke-width="1"/><g fill="none" stroke="#61716f" stroke-width="1.6"><path d="M66 195 L66 171 M451 195 L451 171 M66 162 L451 162"/><path d="M66 155 L66 169 M451 155 L451 169"/></g><g transform="translate(258.5 162) rotate(0)"><rect x="-44" y="-16" width="88" height="30" rx="4" fill="#faf8f3"/><text x="0" y="6" font-size="21" text-anchor="middle" fill="#283739">400 mm</text></g><g fill="none" stroke="#61716f" stroke-width="1.6"><path d="M451 195 L470 195 M451 250 L470 250 M479 195 L479 250"/><path d="M486 195 L472 195 M486 250 L472 250"/></g><g transform="translate(479 222.5) rotate(90)"><rect x="-38" y="-16" width="76" height="30" rx="4" fill="#faf8f3"/><text x="0" y="6" font-size="21" text-anchor="middle" fill="#283739">60 mm</text></g><text x="25" y="383" font-size="20" fill="#147e80">Debelina t = 4,4 mm · Srebrno eloksiran aluminij</text><text x="25" y="414" font-size="17" >Mere ravnila; višina ročaja ni navedena.</text></g><text x="40" y="735" font-size="18" fill="#61716f">Skice niso v merilu.</text><text x="40" y="766" font-size="16" fill="#61716f">Razpoložljive izvedbe preverite v izbirniku različic.</text></g></svg>