<svg xmlns="http://www.w3.org/2000/svg" width="1600" height="1600" viewBox="0 0 1600 1600" role="img"><title>Grafopak — mere vseh različic</title><desc>polkarton A3: 297 × 420 mm; polkarton A4: 210 × 297 mm</desc><rect width="100%" height="100%" fill="#f7f6f2"/><g font-family="Arial, Helvetica, sans-serif" fill="#273638"><text x="64" y="92" font-size="54" font-weight="600">Grafopak</text><text x="64" y="151" font-size="30" fill="#65736f">2 različic · mere v mm</text><g data-variant-sku="MAT-PAP-GRA-420x297-POLKARTON-A3" transform="translate(55 524.75) scale(1.2416666666666667)"><text x="300" y="52" font-size="34" text-anchor="middle" font-weight="600">A3</text><rect x="183.98214285714283" y="135" width="152.0357142857143" height="215.00000000000003" fill="#e2e5df" stroke="#89958f" stroke-width="2"/><path d="M183.98214285714283 350 L183.98214285714283 382" fill="none" stroke="#87928d" stroke-width="2"/><path d="M336.0178571428571 350 L336.0178571428571 382" fill="none" stroke="#87928d" stroke-width="2"/><path d="M183.98214285714283 374 L336.0178571428571 374" fill="none" stroke="#87928d" stroke-width="2"/><text x="260" y="417" font-size="38" text-anchor="middle" font-weight="600">297</text><path d="M336.0178571428571 135 L366.0178571428571 135" fill="none" stroke="#87928d" stroke-width="2"/><path d="M336.0178571428571 350 L366.0178571428571 350" fill="none" stroke="#87928d" stroke-width="2"/><path d="M358.0178571428571 135 L358.0178571428571 350" fill="none" stroke="#87928d" stroke-width="2"/><text x="378.0178571428571" y="255.5" font-size="38" font-weight="600">420</text><text x="300" y="466" font-size="26" text-anchor="middle" fill="#65736f">Debelina ni navedena</text></g><g data-variant-sku="MAT-PAP-GRA-297x210-POLKARTON-A4" transform="translate(800 524.75) scale(1.2416666666666667)"><text x="300" y="52" font-size="34" text-anchor="middle" font-weight="600">A4</text><rect x="183.989898989899" y="135" width="152.02020202020202" height="215" fill="#e2e5df" stroke="#89958f" stroke-width="2"/><path d="M183.989898989899 350 L183.989898989899 382" fill="none" stroke="#87928d" stroke-width="2"/><path d="M336.01010101010104 350 L336.01010101010104 382" fill="none" stroke="#87928d" stroke-width="2"/><path d="M183.989898989899 374 L336.01010101010104 374" fill="none" stroke="#87928d" stroke-width="2"/><text x="260" y="417" font-size="38" text-anchor="middle" font-weight="600">210</text><path d="M336.01010101010104 135 L366.01010101010104 135" fill="none" stroke="#87928d" stroke-width="2"/><path d="M336.01010101010104 350 L366.01010101010104 350" fill="none" stroke="#87928d" stroke-width="2"/><path d="M358.01010101010104 135 L358.01010101010104 350" fill="none" stroke="#87928d" stroke-width="2"/><text x="378.01010101010104" y="255.5" font-size="38" font-weight="600">297</text><text x="300" y="466" font-size="26" text-anchor="middle" fill="#65736f">Debelina ni navedena</text></g><text x="64" y="1560" font-size="24" fill="#65736f">Skica ni v merilu. Razpoložljivost v izbirniku različic.</text></g></svg>