<svg xmlns="http://www.w3.org/2000/svg" width="1600" height="1600" viewBox="0 0 1600 1600" role="img" aria-labelledby="machine-title machine-description"><title id="machine-title">Krivilnik za plastične mase THERMOFORM 400 – tehnična skica</title><desc id="machine-description">Shematski prikaz · vse mere v mm. Prikazana je delovna površina. Zunanje mere celotnega stroja niso navedene.</desc><metadata>{&quot;basis&quot;:[&quot;https://alton.nl/thermoform-400.html&quot;,&quot;https://atehna.si/product/krivilnik-za-plasticne-mase-thermoform-400/&quot;,&quot;Alton: delovna širina 400 mm; največja debelina materiala 5 mm.&quot;,&quot;Atehna: delovna površina 440 × 165 mm; dolžina grelne žice 400 mm.&quot;,&quot;Zunanje mere celotnega stroja niso potrjene; diagram prikazuje samo delovno površino.&quot;],&quot;schematic&quot;:true}</metadata><rect width="1600" height="1600" fill="#f7f6f2"/><g font-family="Arial, Helvetica, sans-serif" fill="#253238" stroke-linecap="round" stroke-linejoin="round"><text x="100" y="128" font-size="56" font-weight="600" letter-spacing="-0.6">Krivilnik za plastične mase THERMOFORM 400</text><text x="100" y="191" font-size="38" fill="#65706e">Shematski prikaz · vse mere v mm</text><text x="160" y="371" font-size="40" >Delovna površina · pogled od zgoraj</text><rect x="160" y="548" width="1100" height="412.5" rx="3" fill="#ecebe5" stroke="#253238" stroke-width="3"/><g class="dimension"><line x1="160" y1="548" x2="160" y2="440" stroke="#253238" stroke-width="2" opacity="0.35"/><line x1="1260" y1="548" x2="1260" y2="440" stroke="#253238" stroke-width="2" opacity="0.35"/><line x1="160" y1="454" x2="1260" y2="454" stroke="#253238" stroke-width="2" opacity="1"/><line x1="152" y1="463" x2="168" y2="445" stroke="#137f84" stroke-width="2" opacity="1"/><line x1="1252" y1="463" x2="1268" y2="445" stroke="#137f84" stroke-width="2" opacity="1"/><text x="710" y="430" font-size="46" text-anchor="middle" fill="#137f84">440 mm</text></g><g class="dimension"><line x1="1260" y1="548" x2="1332" y2="548" stroke="#253238" stroke-width="2" opacity="0.35"/><line x1="1260" y1="960.5" x2="1332" y2="960.5" stroke="#253238" stroke-width="2" opacity="0.35"/><line x1="1318" y1="548" x2="1318" y2="960.5" stroke="#253238" stroke-width="2" opacity="1"/><line x1="1310" y1="557" x2="1326" y2="539" stroke="#137f84" stroke-width="2" opacity="1"/><line x1="1310" y1="969.5" x2="1326" y2="951.5" stroke="#137f84" stroke-width="2" opacity="1"/><line x1="1318" y1="754.25" x2="1338" y2="754.25" stroke="#253238" stroke-width="2" opacity="1"/><text x="1350" y="770.25" font-size="46" text-anchor="start" fill="#137f84">165 mm</text></g><text x="210" y="631" font-size="40" fill="#137f84">Grelna žica</text><line x1="210" y1="681" x2="1210" y2="681" stroke="#137f84" stroke-width="5"/><g class="dimension"><line x1="210" y1="681" x2="210" y2="799" stroke="#253238" stroke-width="2" opacity="0.35"/><line x1="1210" y1="681" x2="1210" y2="799" stroke="#253238" stroke-width="2" opacity="0.35"/><line x1="210" y1="785" x2="1210" y2="785" stroke="#253238" stroke-width="2" opacity="1"/><line x1="202" y1="794" x2="218" y2="776" stroke="#137f84" stroke-width="2" opacity="1"/><line x1="1202" y1="794" x2="1218" y2="776" stroke="#137f84" stroke-width="2" opacity="1"/><text x="710" y="842" font-size="46" text-anchor="middle" fill="#137f84">400 mm</text></g><text x="160" y="1179" font-size="44" >Največja debelina materiala: 5 mm</text><text x="100" y="1478" font-size="36" fill="#65706e">Prikazana je delovna površina.</text><text x="100" y="1530" font-size="36" fill="#65706e">Zunanje mere celotnega stroja niso navedene.</text></g></svg>