<svg xmlns="http://www.w3.org/2000/svg" width="1600" height="1600" viewBox="0 0 1600 1600" role="img"><title>Motorček — mere vseh različic</title><desc>Motorček R23: 30 × 24 mm; Motorček R20: 25 × 21 mm; Motorček R21: 27 × 24 mm</desc><rect width="100%" height="100%" fill="#f7f6f2"/><g font-family="Arial, Helvetica, sans-serif" fill="#273638"><text x="64" y="92" font-size="54" font-weight="600">Motorček</text><text x="64" y="151" font-size="30" fill="#65736f">3 različic · mere v mm</text><g data-variant-sku="ELE-MOT-R23" transform="translate(63.611111111111086 205) scale(1.212962962962963)"><text x="300" y="52" font-size="34" text-anchor="middle" font-weight="600">Motorček R23</text><g fill="#ccd5d0" stroke="#819089" stroke-width="2"><rect x="95" y="180" width="260" height="145" rx="9"/><ellipse cx="355" cy="252.5" rx="18" ry="72.5" fill="#e1e6df"/><path d="M355 246 H415 V259 H355 Z"/></g><path d="M95 325 L95 361" fill="none" stroke="#87928d" stroke-width="2"/><path d="M355 325 L355 361" fill="none" stroke="#87928d" stroke-width="2"/><path d="M95 353 L355 353" fill="none" stroke="#87928d" stroke-width="2"/><text x="225" y="396" font-size="38" text-anchor="middle" font-weight="600">30</text><path d="M355 180 L443 180" fill="none" stroke="#87928d" stroke-width="2"/><path d="M355 325 L443 325" fill="none" stroke="#87928d" stroke-width="2"/><path d="M435 180 L435 325" fill="none" stroke="#87928d" stroke-width="2"/><text x="455" y="265.5" font-size="38" font-weight="600">Ø 24</text><text x="300" y="453" font-size="34" text-anchor="middle" fill="#147e80">Os Ø 2 mm</text><text x="300" y="510" font-size="23" text-anchor="middle" fill="#65736f">Mere ohišja; dolžina osi ni navedena.</text></g><g data-variant-sku="ELE-MOT-R20" transform="translate(808.6111111111111 205) scale(1.212962962962963)"><text x="300" y="52" font-size="34" text-anchor="middle" font-weight="600">Motorček R20</text><g fill="#ccd5d0" stroke="#819089" stroke-width="2"><rect x="95" y="180" width="260" height="145" rx="9"/><ellipse cx="355" cy="252.5" rx="18" ry="72.5" fill="#e1e6df"/><path d="M355 246 H415 V259 H355 Z"/></g><path d="M95 325 L95 361" fill="none" stroke="#87928d" stroke-width="2"/><path d="M355 325 L355 361" fill="none" stroke="#87928d" stroke-width="2"/><path d="M95 353 L355 353" fill="none" stroke="#87928d" stroke-width="2"/><text x="225" y="396" font-size="38" text-anchor="middle" font-weight="600">25</text><path d="M355 180 L443 180" fill="none" stroke="#87928d" stroke-width="2"/><path d="M355 325 L443 325" fill="none" stroke="#87928d" stroke-width="2"/><path d="M435 180 L435 325" fill="none" stroke="#87928d" stroke-width="2"/><text x="455" y="265.5" font-size="38" font-weight="600">Ø 21</text><text x="300" y="453" font-size="34" text-anchor="middle" fill="#147e80">Os Ø 2 mm</text><text x="300" y="510" font-size="23" text-anchor="middle" fill="#65736f">Mere ohišja; dolžina osi ni navedena.</text></g><g data-variant-sku="ELE-MOT-R21" transform="translate(63.611111111111086 860) scale(1.212962962962963)"><text x="300" y="52" font-size="34" text-anchor="middle" font-weight="600">Motorček R21</text><g fill="#ccd5d0" stroke="#819089" stroke-width="2"><rect x="95" y="180" width="260" height="145" rx="9"/><ellipse cx="355" cy="252.5" rx="18" ry="72.5" fill="#e1e6df"/><path d="M355 246 H415 V259 H355 Z"/></g><path d="M95 325 L95 361" fill="none" stroke="#87928d" stroke-width="2"/><path d="M355 325 L355 361" fill="none" stroke="#87928d" stroke-width="2"/><path d="M95 353 L355 353" fill="none" stroke="#87928d" stroke-width="2"/><text x="225" y="396" font-size="38" text-anchor="middle" font-weight="600">27</text><path d="M355 180 L443 180" fill="none" stroke="#87928d" stroke-width="2"/><path d="M355 325 L443 325" fill="none" stroke="#87928d" stroke-width="2"/><path d="M435 180 L435 325" fill="none" stroke="#87928d" stroke-width="2"/><text x="455" y="265.5" font-size="38" font-weight="600">Ø 24</text><text x="300" y="453" font-size="34" text-anchor="middle" fill="#147e80">Os Ø 2 mm</text><text x="300" y="510" font-size="23" text-anchor="middle" fill="#65736f">Mere ohišja; dolžina osi ni navedena.</text></g><text x="64" y="1560" font-size="24" fill="#65736f">Skica ni v merilu. Razpoložljivost v izbirniku različic.</text></g></svg>