<svg xmlns="http://www.w3.org/2000/svg" width="1600" height="1600" viewBox="0 0 1600 1600" role="img"><title>Stiropor — mere vseh različic</title><desc>200 x 300 x 10 mm: 200 × 300 × 10 mm; A5: 148 × 210 mm; 300 x 400 x 10 mm: 300 × 400 × 10 mm; 16 x 33 x 2 cm: 160 × 330 × 20 mm</desc><rect width="100%" height="100%" fill="#f7f6f2"/><g font-family="Arial, Helvetica, sans-serif" fill="#273638"><text x="64" y="92" font-size="54" font-weight="600">Stiropor</text><text x="64" y="151" font-size="30" fill="#65736f">4 različic · mere v mm</text><g data-variant-sku="MAT-UME-STI-10x300x200" transform="translate(63.611111111111086 205) scale(1.212962962962963)"><rect x="188.33333333333334" y="135" width="143.33333333333331" height="214.99999999999997" fill="#e2e5df" stroke="#89958f" stroke-width="2"/><path d="M188.33333333333334 350 L188.33333333333334 382" fill="none" stroke="#87928d" stroke-width="2"/><path d="M331.66666666666663 350 L331.66666666666663 382" fill="none" stroke="#87928d" stroke-width="2"/><path d="M188.33333333333334 374 L331.66666666666663 374" fill="none" stroke="#87928d" stroke-width="2"/><text x="260" y="417" font-size="38" text-anchor="middle" font-weight="600">200</text><path d="M331.66666666666663 135 L361.66666666666663 135" fill="none" stroke="#87928d" stroke-width="2"/><path d="M331.66666666666663 350 L361.66666666666663 350" fill="none" stroke="#87928d" stroke-width="2"/><path d="M353.66666666666663 135 L353.66666666666663 350" fill="none" stroke="#87928d" stroke-width="2"/><text x="373.66666666666663" y="255.5" font-size="38" font-weight="600">300</text><text x="300" y="466" font-size="36" text-anchor="middle" fill="#147e80" font-weight="600">Debelina 10 mm</text></g><g data-variant-sku="MAT-UME-STI-210x148-A5" transform="translate(808.6111111111111 205) scale(1.212962962962963)"><text x="300" y="52" font-size="34" text-anchor="middle" font-weight="600">A5</text><rect x="184.23809523809524" y="135" width="151.52380952380955" height="215.00000000000003" fill="#e2e5df" stroke="#89958f" stroke-width="2"/><path d="M184.23809523809524 350 L184.23809523809524 382" fill="none" stroke="#87928d" stroke-width="2"/><path d="M335.7619047619048 350 L335.7619047619048 382" fill="none" stroke="#87928d" stroke-width="2"/><path d="M184.23809523809524 374 L335.7619047619048 374" fill="none" stroke="#87928d" stroke-width="2"/><text x="260" y="417" font-size="38" text-anchor="middle" font-weight="600">148</text><path d="M335.7619047619048 135 L365.7619047619048 135" fill="none" stroke="#87928d" stroke-width="2"/><path d="M335.7619047619048 350 L365.7619047619048 350" fill="none" stroke="#87928d" stroke-width="2"/><path d="M357.7619047619048 135 L357.7619047619048 350" fill="none" stroke="#87928d" stroke-width="2"/><text x="377.7619047619048" y="255.5" font-size="38" font-weight="600">210</text><text x="300" y="466" font-size="26" text-anchor="middle" fill="#65736f">Debelina ni navedena</text></g><g data-variant-sku="MAT-UME-STI-10x400x300" transform="translate(63.611111111111086 860) scale(1.212962962962963)"><rect x="179.375" y="135" width="161.25" height="215" fill="#e2e5df" stroke="#89958f" stroke-width="2"/><path d="M179.375 350 L179.375 382" fill="none" stroke="#87928d" stroke-width="2"/><path d="M340.625 350 L340.625 382" fill="none" stroke="#87928d" stroke-width="2"/><path d="M179.375 374 L340.625 374" fill="none" stroke="#87928d" stroke-width="2"/><text x="260" y="417" font-size="38" text-anchor="middle" font-weight="600">300</text><path d="M340.625 135 L370.625 135" fill="none" stroke="#87928d" stroke-width="2"/><path d="M340.625 350 L370.625 350" fill="none" stroke="#87928d" stroke-width="2"/><path d="M362.625 135 L362.625 350" fill="none" stroke="#87928d" stroke-width="2"/><text x="382.625" y="255.5" font-size="38" font-weight="600">400</text><text x="300" y="466" font-size="36" text-anchor="middle" fill="#147e80" font-weight="600">Debelina 10 mm</text></g><g data-variant-sku="MAT-UME-STI-20x330x160-CM" transform="translate(808.6111111111111 860) scale(1.212962962962963)"><rect x="207.87878787878788" y="135" width="104.24242424242425" height="215" fill="#e2e5df" stroke="#89958f" stroke-width="2"/><path d="M207.87878787878788 350 L207.87878787878788 382" fill="none" stroke="#87928d" stroke-width="2"/><path d="M312.1212121212121 350 L312.1212121212121 382" fill="none" stroke="#87928d" stroke-width="2"/><path d="M207.87878787878788 374 L312.1212121212121 374" fill="none" stroke="#87928d" stroke-width="2"/><text x="260" y="417" font-size="38" text-anchor="middle" font-weight="600">160</text><path d="M312.1212121212121 135 L342.1212121212121 135" fill="none" stroke="#87928d" stroke-width="2"/><path d="M312.1212121212121 350 L342.1212121212121 350" fill="none" stroke="#87928d" stroke-width="2"/><path d="M334.1212121212121 135 L334.1212121212121 350" fill="none" stroke="#87928d" stroke-width="2"/><text x="354.1212121212121" y="255.5" font-size="38" font-weight="600">330</text><text x="300" y="466" font-size="36" text-anchor="middle" fill="#147e80" font-weight="600">Debelina 20 mm</text></g><text x="64" y="1560" font-size="24" fill="#65736f">Skica ni v merilu. Razpoložljivost v izbirniku različic.</text></g></svg>