<svg xmlns="http://www.w3.org/2000/svg" width="1600" height="1600" viewBox="0 0 1600 1600" role="img"><title>Trikotniki za tablo — mere vseh različic</title><desc>45° / 50 cm: 500 mm; 45° / 60 cm: 600 mm; 60° / 50 cm: 500 mm; 60° / 60 cm: 600 mm</desc><rect width="100%" height="100%" fill="#f7f6f2"/><g font-family="Arial, Helvetica, sans-serif" fill="#273638"><text x="64" y="92" font-size="54" font-weight="600">Trikotniki za tablo</text><text x="64" y="151" font-size="30" fill="#65736f">4 različic · mere v mm</text><g data-variant-sku="MER-TRI-ZA-45-50-CM" transform="translate(63.611111111111086 205) scale(1.212962962962963)"><text x="300" y="52" font-size="34" text-anchor="middle" font-weight="600">Hipotenuza</text><path d="M95 338 L435 338 L265 168 Z" fill="#dbe4df" stroke="#819089" stroke-width="2" stroke-linejoin="round"/><text x="185" y="315" font-size="36" text-anchor="middle" fill="#147e80">45°</text><path d="M95 338 L95 373" fill="none" stroke="#87928d" stroke-width="2"/><path d="M435 338 L435 373" fill="none" stroke="#87928d" stroke-width="2"/><path d="M95 365 L435 365" fill="none" stroke="#87928d" stroke-width="2"/><text x="265" y="408" font-size="38" text-anchor="middle" font-weight="600">500</text></g><g data-variant-sku="MER-TRI-ZA-45-60-CM" transform="translate(808.6111111111111 205) scale(1.212962962962963)"><text x="300" y="52" font-size="34" text-anchor="middle" font-weight="600">Hipotenuza</text><path d="M95 338 L435 338 L265 168 Z" fill="#dbe4df" stroke="#819089" stroke-width="2" stroke-linejoin="round"/><text x="185" y="315" font-size="36" text-anchor="middle" fill="#147e80">45°</text><path d="M95 338 L95 373" fill="none" stroke="#87928d" stroke-width="2"/><path d="M435 338 L435 373" fill="none" stroke="#87928d" stroke-width="2"/><path d="M95 365 L435 365" fill="none" stroke="#87928d" stroke-width="2"/><text x="265" y="408" font-size="38" text-anchor="middle" font-weight="600">600</text></g><g data-variant-sku="MER-TRI-ZA-60-50-CM" transform="translate(63.611111111111086 860) scale(1.212962962962963)"><text x="300" y="52" font-size="34" text-anchor="middle" font-weight="600">Daljša kateta</text><path d="M95 338 L435 338 L435 142 Z" fill="#dbe4df" stroke="#819089" stroke-width="2" stroke-linejoin="round"/><text x="423" y="230" font-size="36" text-anchor="end" fill="#147e80">60°</text><path d="M95 338 L95 373" fill="none" stroke="#87928d" stroke-width="2"/><path d="M435 338 L435 373" fill="none" stroke="#87928d" stroke-width="2"/><path d="M95 365 L435 365" fill="none" stroke="#87928d" stroke-width="2"/><text x="265" y="408" font-size="38" text-anchor="middle" font-weight="600">500</text></g><g data-variant-sku="MER-TRI-ZA-60-60-CM" transform="translate(808.6111111111111 860) scale(1.212962962962963)"><text x="300" y="52" font-size="34" text-anchor="middle" font-weight="600">Daljša kateta</text><path d="M95 338 L435 338 L435 142 Z" fill="#dbe4df" stroke="#819089" stroke-width="2" stroke-linejoin="round"/><text x="423" y="230" font-size="36" text-anchor="end" fill="#147e80">60°</text><path d="M95 338 L95 373" fill="none" stroke="#87928d" stroke-width="2"/><path d="M435 338 L435 373" fill="none" stroke="#87928d" stroke-width="2"/><path d="M95 365 L435 365" fill="none" stroke="#87928d" stroke-width="2"/><text x="265" y="408" font-size="38" text-anchor="middle" font-weight="600">600</text></g><text x="64" y="1560" font-size="24" fill="#65736f">Skica ni v merilu. Razpoložljivost v izbirniku različic.</text></g></svg>