<svg xmlns="http://www.w3.org/2000/svg" width="1600" height="1600" viewBox="0 0 1600 1600" role="img" aria-labelledby="machine-title machine-description"><title id="machine-title">Vibracijska žaga Proxxon DSH – tehnična skica</title><desc id="machine-description">Shematski prikaz · vse mere v mm. Mere stroja: PROXXON 28092, navodila 4/2015-06, str. 14.</desc><metadata>{&quot;basis&quot;:[&quot;https://s3-eu-west-1.amazonaws.com/plentymarkets-public-94/rzc8p33vcg85/propertyItems/10335/Bedienungsanleitung_28092-Dekupiers%C3%A4ge_aktuell.pdf&quot;,&quot;https://www.proxxon.com/en/micromot/28092.php&quot;,&quot;PROXXON DSH 28092: navodila rev. 4/2015-06, str. 14: D × Š × V = 53 × 27 × 33 cm.&quot;,&quot;Delovna miza: 360 × 180 mm; potrjeno tudi na uradni produktni strani proizvajalca.&quot;,&quot;Obris stroja je poenostavljena vektorska shema, ne risba sestavnih delov ali prikaz dejanskih barv.&quot;],&quot;schematic&quot;:true}</metadata><rect width="1600" height="1600" fill="#f7f6f2"/><g font-family="Arial, Helvetica, sans-serif" fill="#253238" stroke-linecap="round" stroke-linejoin="round"><text x="100" y="128" font-size="56" font-weight="600" letter-spacing="-0.6">Vibracijska žaga Proxxon DSH</text><text x="100" y="191" font-size="38" fill="#65706e">Shematski prikaz · vse mere v mm</text><text x="392" y="294" font-size="40" >Stranski pogled</text><g transform="translate(106 -130) scale(1.3)" stroke="#253238" stroke-width="2.4" fill="#ecebe5"><path d="M 293 418 Q 278 402 300 392 L 756 375 Q 827 373 852 426 L 880 735 L 815 735 L 795 471 Q 792 446 758 442 L 313 460 Q 293 460 293 438 Z"/><path d="M 320 375 L 320 370 M 338 375 L 338 370" fill="none"/><rect x="300" y="350" width="58" height="20" rx="7"/><circle cx="805" cy="673" r="57"/><path d="M 285 735 L 299 657 L 412 657 L 429 735 Z"/><path d="M 245 624 L 640 624 L 640 640 L 245 640 Z"/><path d="M 220 749 L 240 735 L 889 735 L 909 753 L 909 779 L 220 779 Z"/><line x1="330" y1="459" x2="330" y2="655" stroke="#137f84" stroke-width="2.8"/></g><g class="dimension"><line x1="392" y1="882.7" x2="392" y2="957" stroke="#253238" stroke-width="2" opacity="0.35"/><line x1="1287.7" y1="882.7" x2="1287.7" y2="957" stroke="#253238" stroke-width="2" opacity="0.35"/><line x1="392" y1="943" x2="1287.7" y2="943" stroke="#253238" stroke-width="2" opacity="1"/><line x1="384" y1="952" x2="400" y2="934" stroke="#137f84" stroke-width="2" opacity="1"/><line x1="1279.7" y1="952" x2="1295.7" y2="934" stroke="#137f84" stroke-width="2" opacity="1"/><text x="839.85" y="1000" font-size="46" text-anchor="middle" fill="#137f84">530 mm</text></g><g class="dimension"><line x1="496" y1="325" x2="282" y2="325" stroke="#253238" stroke-width="2" opacity="0.35"/><line x1="392" y1="882.7" x2="282" y2="882.7" stroke="#253238" stroke-width="2" opacity="0.35"/><line x1="296" y1="325" x2="296" y2="882.7" stroke="#253238" stroke-width="2" opacity="1"/><line x1="288" y1="334" x2="304" y2="316" stroke="#137f84" stroke-width="2" opacity="1"/><line x1="288" y1="891.7" x2="304" y2="873.7" stroke="#137f84" stroke-width="2" opacity="1"/><line x1="296" y1="603.85" x2="276" y2="603.85" stroke="#253238" stroke-width="2" opacity="1"/><text x="264" y="619.85" font-size="46" text-anchor="end" fill="#137f84">330 mm</text></g><text x="350" y="1080" font-size="40" >Sprednji pogled</text><g transform="translate(-820 448)" stroke="#253238" stroke-width="3" fill="#ecebe5"><path d="M 1206 873 L 1235 720 Q 1240 699 1278 699 Q 1316 699 1321 720 L 1350 873 Z"/><rect x="1256" y="682" width="44" height="17" rx="6"/><rect x="1201" y="790" width="154" height="13"/><line x1="1278" y1="742" x2="1278" y2="811" stroke="#137f84" stroke-width="3"/><rect x="1170" y="873" width="216" height="29" rx="3"/></g><g class="dimension"><line x1="350" y1="1350" x2="350" y2="1414" stroke="#253238" stroke-width="2" opacity="0.35"/><line x1="566" y1="1350" x2="566" y2="1414" stroke="#253238" stroke-width="2" opacity="0.35"/><line x1="350" y1="1400" x2="566" y2="1400" stroke="#253238" stroke-width="2" opacity="1"/><line x1="342" y1="1409" x2="358" y2="1391" stroke="#137f84" stroke-width="2" opacity="1"/><line x1="558" y1="1409" x2="574" y2="1391" stroke="#137f84" stroke-width="2" opacity="1"/><text x="458" y="1457" font-size="46" text-anchor="middle" fill="#137f84">270 mm</text></g><text x="920" y="1080" font-size="40" >Delovna miza</text><rect x="920" y="1198" width="360" height="180" rx="8" fill="#ecebe5" stroke="#253238" stroke-width="3"/><g class="dimension"><line x1="920" y1="1198" x2="920" y2="1144" stroke="#253238" stroke-width="2" opacity="0.35"/><line x1="1280" y1="1198" x2="1280" y2="1144" stroke="#253238" stroke-width="2" opacity="0.35"/><line x1="920" y1="1158" x2="1280" y2="1158" stroke="#253238" stroke-width="2" opacity="1"/><line x1="912" y1="1167" x2="928" y2="1149" stroke="#137f84" stroke-width="2" opacity="1"/><line x1="1272" y1="1167" x2="1288" y2="1149" stroke="#137f84" stroke-width="2" opacity="1"/><text x="1100" y="1134" font-size="46" text-anchor="middle" fill="#137f84">360 mm</text></g><g class="dimension"><line x1="1280" y1="1198" x2="1334" y2="1198" stroke="#253238" stroke-width="2" opacity="0.35"/><line x1="1280" y1="1378" x2="1334" y2="1378" stroke="#253238" stroke-width="2" opacity="0.35"/><line x1="1320" y1="1198" x2="1320" y2="1378" stroke="#253238" stroke-width="2" opacity="1"/><line x1="1312" y1="1207" x2="1328" y2="1189" stroke="#137f84" stroke-width="2" opacity="1"/><line x1="1312" y1="1387" x2="1328" y2="1369" stroke="#137f84" stroke-width="2" opacity="1"/><line x1="1320" y1="1288" x2="1340" y2="1288" stroke="#253238" stroke-width="2" opacity="1"/><text x="1352" y="1304" font-size="46" text-anchor="start" fill="#137f84">180 mm</text></g><text x="100" y="1530" font-size="36" fill="#65706e">Mere stroja: PROXXON 28092, navodila 4/2015-06, str. 14.</text></g></svg>